<svg xmlns="http://www.w3.org/2000/svg" xmlns:xlink="http://www.w3.org/1999/xlink" width="178" height="108" version="1.1" viewBox="0 0 178 108"><title>Combined Shape</title><desc>Created with Sketch.</desc><g id="Page-1" fill="none" fill-rule="evenodd" stroke="none" stroke-width="1"><g id="add-hosts-affordance-sidebar-copy" fill="#48C586" transform="translate(-568.000000, -309.000000)"><g id="Main-Content" transform="translate(216.000000, 0.000000)"><g id="Group-2" transform="translate(352.000000, 309.000000)"><path id="Combined-Shape" d="M10.7318688,92.0395893 L16.3227065,103.025781 C17.0741655,104.502424 16.4862875,106.308658 15.0096443,107.060117 C13.533001,107.811576 11.7267672,107.223698 10.9753082,105.747055 L0.600898852,85.3609776 C-0.401975187,83.390295 0.999177207,81.0487637 3.2098487,81.0010395 L26.7768904,80.4922712 C28.4333587,80.4565111 29.8051809,81.7703547 29.8409409,83.426823 C29.876701,85.0832913 28.5628573,86.4551135 26.906389,86.4908735 L13.6708992,86.776603 C49.2846873,102.292568 87.9946564,102.461825 118.849229,87.9278586 C151.965091,72.3287174 171.940233,41.8794291 171.940233,3.1443997 C171.940233,1.48754545 173.283379,0.144399702 174.940233,0.144399702 C176.597087,0.144399702 177.940233,1.48754545 177.940233,3.1443997 C177.940233,44.2394205 156.592221,76.7814562 121.406051,93.3558102 C88.793162,108.718027 48.0438963,108.466216 10.7318688,92.0395893 Z"/></g></g></g></g></svg>